<svg width="148" height="45" viewBox="0 0 148 45" fill="none" xmlns="http://www.w3.org/2000/svg">
<path fill-rule="evenodd" clip-rule="evenodd" d="M145.279 22.3391C144.963 22.3401 144.65 22.2785 144.358 22.1578C144.066 22.0372 143.8 21.8599 143.577 21.6363C143.354 21.4126 143.177 21.1469 143.056 20.8546C142.936 20.5622 142.875 20.2489 142.876 19.9327C142.876 18.612 143.94 17.5122 145.293 17.5122C145.609 17.5113 145.923 17.5729 146.215 17.6936C146.507 17.8142 146.772 17.9915 146.996 18.2151C147.219 18.4388 147.396 18.7045 147.516 18.9968C147.637 19.2892 147.698 19.6025 147.697 19.9186C147.697 20.5602 147.442 21.1755 146.989 21.6294C146.535 22.0832 145.921 22.3385 145.279 22.3391M145.293 17.7519C145.007 17.7497 144.723 17.8047 144.459 17.9137C144.194 18.0227 143.954 18.1835 143.752 18.3866C143.55 18.5898 143.391 18.8312 143.284 19.0967C143.176 19.3622 143.123 19.6464 143.127 19.9327C143.127 21.1312 144.053 22.0971 145.279 22.0971C145.565 22.099 145.849 22.0439 146.113 21.9349C146.378 21.8259 146.618 21.6654 146.819 21.4625C147.021 21.2597 147.18 21.0187 147.288 20.7536C147.395 20.4885 147.449 20.2047 147.445 19.9186C147.45 19.6341 147.397 19.3515 147.291 19.0876C147.184 18.8236 147.026 18.5837 146.826 18.3818C146.625 18.1799 146.386 18.0201 146.123 17.912C145.86 17.8038 145.578 17.7494 145.293 17.7519M145.824 20.1654L146.506 21.1195H145.932L145.322 20.2453H144.793V21.1195H144.314V18.5932H145.441C146.026 18.5932 146.412 18.894 146.412 19.3993C146.412 19.8129 146.172 20.0667 145.824 20.1654M145.42 19.0256H144.793V19.8246H145.42C145.733 19.8246 145.918 19.6719 145.918 19.4251C145.918 19.1666 145.73 19.0256 145.42 19.0256ZM115.341 10.7536C114.691 10.7533 114.068 11.0113 113.608 11.4707C113.148 11.9302 112.89 12.5535 112.89 13.2035C112.889 13.8536 113.147 14.4771 113.606 14.937C114.066 15.3969 114.689 15.6554 115.339 15.6557C115.989 15.6557 116.612 15.3974 117.072 14.9375C117.532 14.4776 117.79 13.8539 117.79 13.2035C117.79 12.5532 117.532 11.9294 117.072 11.4695C116.612 11.0097 115.989 10.7513 115.339 10.7513M117.03 17.5428H113.614C113.548 17.5434 113.485 17.5702 113.438 17.6173C113.391 17.6644 113.365 17.728 113.365 17.7942V32.7073C113.365 32.8483 113.476 32.9588 113.614 32.9588H117.032C117.099 32.9588 117.163 32.9323 117.21 32.8851C117.257 32.838 117.284 32.774 117.284 32.7073V17.7942C117.284 17.7276 117.257 17.6636 117.21 17.6164C117.163 17.5693 117.099 17.5428 117.032 17.5428M124.627 17.5569V17.0869C124.627 15.6957 125.161 15.0753 126.356 15.0753C127.068 15.0753 127.639 15.2163 128.283 15.4325C128.321 15.4453 128.361 15.4488 128.4 15.4428C128.44 15.4368 128.477 15.4214 128.509 15.3979C128.542 15.3744 128.568 15.3435 128.585 15.3078C128.603 15.2721 128.612 15.2327 128.612 15.1928V12.314C128.611 12.2602 128.594 12.2079 128.562 12.1648C128.53 12.1216 128.485 12.0899 128.433 12.0743C127.512 11.7929 126.553 11.655 125.591 11.6654C122.436 11.6654 120.768 13.4444 120.768 16.8072V17.531H119.126C119.059 17.531 118.996 17.5572 118.949 17.6039C118.902 17.6505 118.875 17.7139 118.874 17.7801V20.7341C118.874 20.8727 118.987 20.9855 119.126 20.9855H120.768V32.712C120.768 32.8483 120.878 32.9611 121.017 32.9611H124.435C124.501 32.9605 124.564 32.9338 124.611 32.8867C124.658 32.8396 124.684 32.776 124.684 32.7097V20.9832H127.874L132.763 32.7097C132.208 33.9387 131.663 34.1855 130.919 34.1855C130.315 34.1855 129.681 34.0045 129.032 33.6497C129.002 33.6336 128.969 33.6237 128.935 33.6204C128.902 33.6172 128.867 33.6208 128.835 33.6309C128.802 33.6421 128.772 33.66 128.746 33.6834C128.721 33.7069 128.701 33.7354 128.687 33.7672L127.529 36.3075C127.502 36.3649 127.498 36.4304 127.517 36.4906C127.537 36.5509 127.579 36.6014 127.634 36.6318C128.844 37.2875 129.937 37.5671 131.285 37.5671C133.808 37.5671 135.204 36.3921 136.432 33.2267L142.362 17.9C142.377 17.862 142.383 17.8208 142.379 17.78C142.374 17.7392 142.36 17.7001 142.337 17.6662C142.314 17.6322 142.283 17.6045 142.247 17.5854C142.21 17.5664 142.17 17.5566 142.129 17.5569H138.572C138.52 17.5574 138.47 17.574 138.428 17.6043C138.386 17.6346 138.354 17.6771 138.337 17.7261L134.691 28.1389L130.698 17.719C130.68 17.6716 130.648 17.6306 130.607 17.6016C130.565 17.5727 130.516 17.5571 130.465 17.5569H124.627M111.526 17.5428H107.767V13.6958C107.767 13.6629 107.761 13.6304 107.748 13.6C107.735 13.5696 107.717 13.542 107.693 13.5189C107.67 13.4957 107.642 13.4774 107.612 13.465C107.581 13.4527 107.549 13.4464 107.516 13.4467H104.098C104.032 13.4474 103.969 13.4738 103.922 13.5204C103.876 13.567 103.849 13.63 103.849 13.6958V17.5428H102.204C102.171 17.5428 102.139 17.5493 102.108 17.562C102.078 17.5746 102.05 17.5932 102.027 17.6166C102.004 17.64 101.986 17.6677 101.974 17.6982C101.961 17.7287 101.955 17.7613 101.955 17.7942V20.7317C101.955 20.8704 102.068 20.9832 102.204 20.9832H103.849V28.5831C103.849 31.6569 105.376 33.2126 108.392 33.2126C109.618 33.2126 110.633 32.9611 111.592 32.4183C111.63 32.3965 111.663 32.3647 111.685 32.3263C111.707 32.2879 111.719 32.2442 111.719 32.1997V29.4032C111.719 29.3604 111.709 29.318 111.688 29.2804C111.668 29.2427 111.638 29.211 111.601 29.1883C111.565 29.1657 111.523 29.1527 111.48 29.1509C111.438 29.149 111.395 29.1582 111.357 29.1776C110.699 29.509 110.062 29.6617 109.351 29.6617C108.253 29.6617 107.765 29.1659 107.765 28.0496V20.9832H111.524C111.557 20.9835 111.589 20.9772 111.62 20.9647C111.651 20.9522 111.679 20.9337 111.702 20.9102C111.725 20.8868 111.744 20.859 111.756 20.8283C111.769 20.7977 111.775 20.7649 111.775 20.7317V17.7942C111.775 17.7613 111.769 17.7287 111.757 17.6982C111.744 17.6677 111.726 17.64 111.703 17.6166C111.68 17.5932 111.652 17.5746 111.622 17.562C111.591 17.5493 111.559 17.5428 111.526 17.5428M93.5051 17.2302C88.9007 17.2302 85.29 20.7787 85.29 25.3072C85.29 29.7886 88.8748 33.2972 93.4487 33.2972C98.0696 33.2972 101.69 29.7628 101.69 25.2508C101.69 20.7529 98.0955 17.2302 93.5051 17.2302ZM93.5051 29.8309C91.0549 29.8309 89.2061 27.8616 89.2061 25.2484C89.2061 22.6282 90.9915 20.727 93.4487 20.727C95.9154 20.727 97.7713 22.6963 97.7713 25.3095C97.7713 27.9298 95.9788 29.8309 93.5051 29.8309ZM77.0278 17.2302C75.1015 17.2302 73.5228 17.9893 72.2213 19.5426V17.7942C72.2213 17.728 72.1952 17.6644 72.1485 17.6173C72.1019 17.5702 72.0386 17.5434 71.9723 17.5428H68.5542C68.4879 17.5434 68.4246 17.5702 68.378 17.6173C68.3313 17.6644 68.3052 17.728 68.3052 17.7942V37.2287C68.3052 37.365 68.418 37.4778 68.5542 37.4778H71.9723C72.0382 37.4772 72.1011 37.4508 72.1477 37.4042C72.1943 37.3576 72.2207 37.2946 72.2213 37.2287V31.0952C73.5251 32.5546 75.1038 33.269 77.0278 33.269C80.6033 33.269 84.2234 30.5148 84.2234 25.2508C84.2234 19.9868 80.6056 17.2302 77.0278 17.2302ZM80.2509 25.2508C80.2509 27.9298 78.5994 29.8027 76.2361 29.8027C73.8987 29.8027 72.1367 27.8452 72.1367 25.2508C72.1367 22.6564 73.8987 20.6988 76.2361 20.6988C78.5618 20.6988 80.2533 22.6117 80.2533 25.2508M60.433 20.9973C56.6179 20.0855 55.939 19.4463 55.939 18.1044C55.939 16.8354 57.1324 15.9824 58.9084 15.9824C60.628 15.9824 62.3359 16.6286 64.1236 17.9634C64.1503 17.9831 64.1805 17.9974 64.2127 18.0053C64.2449 18.0132 64.2783 18.0147 64.311 18.0097C64.3438 18.0047 64.3752 17.9933 64.4035 17.976C64.4318 17.9588 64.4565 17.9362 64.476 17.9094L66.3413 15.2797C66.3775 15.2278 66.3927 15.1641 66.384 15.1013C66.3753 15.0386 66.3433 14.9815 66.2943 14.9413C64.1659 13.2305 61.7674 12.401 58.9647 12.401C54.8419 12.401 51.9641 14.8732 51.9641 18.4146C51.9641 22.2099 54.4472 23.5541 58.7392 24.5904C62.3899 25.4317 63.0077 26.1367 63.0077 27.3987C63.0077 28.7946 61.7627 29.6617 59.7541 29.6617C57.527 29.6617 55.7111 28.9097 53.6767 27.1519C53.6258 27.1087 53.5601 27.0868 53.4934 27.0908C53.4603 27.0934 53.4281 27.1026 53.3986 27.118C53.3691 27.1333 53.3431 27.1545 53.322 27.1801L51.2312 29.6664C51.1885 29.716 51.1673 29.7805 51.1721 29.8457C51.177 29.9109 51.2075 29.9715 51.257 30.0142C53.5606 32.102 56.5611 33.2528 59.6695 33.2408C64.1095 33.2408 66.9802 30.8132 66.9802 27.0579C66.9802 23.8831 65.0844 22.1276 60.433 20.9949M22.3336 0.716797C16.4707 0.716797 10.8479 3.04661 6.70225 7.19369C2.55656 11.3408 0.227539 16.9654 0.227539 22.8303C0.227539 28.6952 2.55656 34.3198 6.70225 38.4669C10.8479 42.614 16.4707 44.9438 22.3336 44.9438C28.1965 44.9438 33.8192 42.614 37.9649 38.4669C42.1106 34.3198 44.4396 28.6952 44.4396 22.8303C44.4396 16.9654 42.1106 11.3408 37.9649 7.19369C33.8192 3.04661 28.1965 0.716797 22.3336 0.716797M32.4727 32.611C32.3786 32.7659 32.2548 32.9006 32.1084 33.0075C31.9621 33.1144 31.7961 33.1913 31.62 33.2339C31.4438 33.2765 31.261 33.2838 31.082 33.2556C30.9031 33.2273 30.7314 33.164 30.5769 33.0692C25.3852 29.8967 18.8544 29.18 11.1584 30.9378C10.9821 30.9781 10.7996 30.9832 10.6213 30.9529C10.443 30.9226 10.2724 30.8575 10.1193 30.7613C9.96612 30.6651 9.83344 30.5396 9.72877 30.3921C9.62411 30.2445 9.54951 30.0778 9.50925 29.9014C9.46899 29.7251 9.46385 29.5425 9.49413 29.3641C9.52441 29.1858 9.5895 29.0152 9.68571 28.862C9.78191 28.7088 9.90733 28.576 10.0548 28.4713C10.2023 28.3666 10.3689 28.292 10.5453 28.2517C18.9648 26.3247 26.1886 27.1543 32.0147 30.7169C32.663 31.114 32.8674 31.9624 32.4727 32.611ZM35.1743 26.5903C34.9353 26.9794 34.5518 27.2577 34.1079 27.3643C33.6639 27.4709 33.1959 27.3971 32.8063 27.159C26.8652 23.5047 17.8067 22.4472 10.7778 24.581C10.3502 24.6825 9.89993 24.6171 9.51887 24.398C9.13781 24.1789 8.85461 23.8227 8.72699 23.4019C8.59938 22.9812 8.63696 22.5276 8.83207 22.1337C9.02718 21.7397 9.36514 21.435 9.77706 21.2816C17.8067 18.8447 27.7861 20.0267 34.6082 24.2191C34.8014 24.3376 34.9694 24.4929 35.1025 24.6763C35.2357 24.8597 35.3314 25.0676 35.3842 25.288C35.437 25.5085 35.4459 25.7371 35.4102 25.961C35.3746 26.1849 35.2953 26.3995 35.1767 26.5926M35.4116 20.3205C28.2841 16.0881 16.5287 15.698 9.72773 17.766C9.46674 17.8493 9.1918 17.8799 8.9189 17.856C8.646 17.832 8.38057 17.7541 8.13805 17.6266C7.89553 17.4992 7.68075 17.3248 7.50619 17.1136C7.33162 16.9024 7.20077 16.6586 7.12122 16.3963C7.04168 16.1341 7.01503 15.8587 7.04282 15.5861C7.07061 15.3134 7.1523 15.049 7.28312 14.8083C7.41395 14.5675 7.59131 14.3551 7.8049 14.1835C8.01848 14.0119 8.26404 13.8845 8.52729 13.8086C16.3337 11.4351 29.3154 11.8957 37.5165 16.7649C37.9881 17.0448 38.3293 17.5006 38.465 18.0321C38.6007 18.5636 38.5198 19.1272 38.24 19.599C37.9603 20.0709 37.5046 20.4122 36.9733 20.5479C36.442 20.6836 35.8786 20.6027 35.4069 20.3228" fill="white"/>
</svg>
